{"asset":{"copyright":"","generator":"Aspose GLTF","version":"2.0"},"extensionsUsed":["KHR_materials_unlit"],"accessors":[{"name":"POSITION","bufferView":0,"componentType":5126,"count":496118,"max":[9910.666015625,-4545.03173828125,3098.222412109375],"min":[460.6898193359375,-10650.2646484375,-5447.828125],"type":"VEC3"},{"bufferView":1,"componentType":5125,"count":1474154,"type":"SCALAR"}],"bufferViews":[{"buffer":0,"byteLength":5953416,"byteStride":12,"target":34962},{"buffer":0,"byteLength":5896616,"byteOffset":5953416,"target":34963}],"buffers":[{"byteLength":11850032,"uri":"model.bin"}],"materials":[{"extensions":{"KHR_materials_unlit":{}},"name":"material1","pbrMetallicRoughness":{}}],"meshes":[{"name":"mesh","primitives":[{"attributes":{"POSITION":0},"indices":1,"material":0,"mode":1}]}],"nodes":[{"mesh":0}],"scenes":[{"name":"Default","nodes":[0]}]}